<?xml version="1.0" standalone="no"?>
<!DOCTYPE svg PUBLIC "-//W3C//DTD SVG 20010904//EN"
 "http://www.w3.org/TR/2001/REC-SVG-20010904/DTD/svg10.dtd">
<svg version="1.0" xmlns="http://www.w3.org/2000/svg"
 width="1228.000000pt" height="1280.000000pt" viewBox="0 0 1228.000000 1280.000000"
 preserveAspectRatio="xMidYMid meet">
<metadata>
Created by potrace 1.15, written by Peter Selinger 2001-2017
</metadata>
<g transform="translate(0.000000,1280.000000) scale(0.100000,-0.100000)"
fill="#000000" stroke="none">
<path d="M5154 12790 c-12 -4 -31 -21 -44 -37 -18 -23 -21 -36 -17 -79 3 -29
12 -65 21 -82 14 -27 14 -135 6 -1063 -6 -569 -11 -1174 -13 -1346 -1 -171 -5
-314 -8 -318 -4 -3 -255 30 -559 75 -393 58 -566 80 -599 75 -47 -6 -393 35
-461 55 -47 14 -120 12 -149 -3 -38 -19 -64 -71 -57 -112 8 -41 47 -90 89
-111 28 -15 127 -21 146 -10 5 3 140 -12 301 -34 162 -22 294 -40 295 -40 2 0
29 -35 62 -77 243 -315 366 -645 380 -1018 23 -615 -245 -1239 -927 -2161
l-97 -130 -99 12 c-54 6 -120 17 -147 24 -38 10 -53 10 -78 -1 -81 -33 -93
-157 -22 -231 41 -43 83 -52 147 -34 35 10 94 16 165 16 105 0 115 -2 174 -31
372 -186 618 -462 732 -820 48 -151 66 -262 72 -450 8 -247 -18 -470 -83 -719
-31 -118 -135 -430 -144 -430 -4 0 -240 363 -525 807 l-519 807 -113 1066
c-62 586 -112 1081 -112 1100 3 64 -1 78 -27 109 -35 42 -93 57 -162 41 -65
-14 -108 -49 -123 -100 -11 -35 -9 -44 15 -92 25 -49 34 -108 126 -848 55
-437 99 -798 97 -802 -1 -3 -285 434 -631 973 -346 539 -633 976 -638 971 -14
-14 -77 -210 -108 -332 -97 -388 -107 -827 -30 -1350 36 -250 79 -453 234
-1125 101 -433 119 -515 114 -520 -7 -7 -859 2560 -869 2619 -15 81 -63 133
-131 142 -91 12 -207 -71 -224 -161 -8 -44 18 -97 63 -127 35 -23 42 -40 423
-1088 213 -586 390 -1074 393 -1085 7 -19 3 -20 -83 -16 -101 3 -205 -11 -266
-39 l-41 -18 -11 -113 c-21 -216 -22 -254 -12 -384 36 -450 193 -737 447 -817
l70 -22 12 -80 c7 -44 18 -92 26 -106 9 -18 188 -613 232 -772 3 -10 13 -20
23 -23 10 -3 41 -56 75 -128 32 -67 118 -250 192 -405 75 -156 131 -287 127
-291 -62 -51 -177 -114 -253 -137 -62 -19 -195 -19 -250 1 -75 26 -152 76
-227 147 l-72 68 -123 -64 c-68 -35 -155 -74 -194 -86 -127 -39 -287 -37 -488
6 -23 5 -27 3 -27 -14 0 -16 9 -24 38 -31 84 -22 162 -31 267 -31 150 0 237
23 396 103 l126 63 65 -62 c111 -104 243 -164 363 -164 108 0 250 53 365 136
l49 35 73 -54 c67 -50 138 -95 221 -139 48 -25 175 -67 253 -82 38 -8 57 -15
43 -15 -38 -1 -166 33 -254 68 -91 37 -106 37 -238 10 -166 -33 -226 -71 -159
-98 188 -77 719 -128 1822 -173 413 -17 2287 -17 2700 0 544 22 915 44 1178
68 437 40 672 87 672 134 0 37 38 29 120 -25 142 -93 343 -164 570 -201 114
-19 481 -29 644 -19 112 7 117 8 114 29 -2 11 -9 20 -15 19 -7 -2 -108 -6
-225 -9 -476 -14 -828 60 -1077 226 l-84 57 -66 -15 c-36 -8 -100 -22 -141
-32 -41 -10 -77 -17 -79 -14 -4 4 4 7 74 27 l50 14 -53 9 -54 9 49 65 c174
230 344 521 464 795 24 55 45 92 47 83 6 -30 53 1 254 167 l193 159 352 183
c194 101 358 183 365 183 7 0 180 -37 385 -82 l372 -82 83 24 c416 118 657
235 837 405 148 140 225 292 250 495 6 46 11 90 11 96 0 7 24 13 60 16 80 6
114 30 118 86 3 35 -2 46 -33 81 -20 22 -56 48 -82 57 -42 16 -44 19 -27 31
11 8 43 37 73 66 65 63 101 134 101 200 0 48 -1 48 -27 43 -16 -3 -48 -8 -73
-11 -111 -15 -233 -60 -444 -163 l-220 -106 -470 23 c-892 42 -1218 60 -1222
64 -3 2 13 50 35 106 118 302 167 619 143 918 -7 82 -15 159 -18 172 -7 22 -5
23 33 17 27 -5 53 -2 81 10 84 33 107 114 52 178 -36 40 -79 57 -168 65 l-63
6 42 55 c285 375 506 929 575 1440 23 169 23 496 0 640 -56 354 -166 620 -367
887 -45 60 -71 102 -61 99 223 -63 260 -65 307 -16 25 26 27 35 23 82 -3 39
-13 67 -36 100 -51 74 -67 78 -292 71 l-195 -6 -600 128 c-330 71 -601 129
-603 131 -2 1 4 190 12 420 9 231 18 498 21 594 3 96 8 207 11 246 l5 71 52
31 c117 71 248 91 344 53 27 -10 98 -48 158 -85 236 -145 499 -260 686 -301
102 -22 326 -31 427 -16 82 12 192 45 248 74 69 36 156 113 235 208 46 56 99
119 117 140 27 31 31 41 23 57 -10 19 -14 18 -112 -15 -130 -43 -288 -70 -461
-77 -76 -3 -138 -4 -138 -1 0 2 51 34 113 71 290 173 463 320 593 500 47 66
50 74 33 91 -9 9 -34 0 -102 -33 -375 -189 -837 -202 -1307 -39 -128 45 -250
100 -390 177 -121 66 -189 91 -293 109 -71 12 -117 8 -182 -18 -17 -6 -18 0
-11 92 3 53 11 106 17 118 19 34 6 123 -22 153 -51 56 -142 79 -197 50 -63
-33 -80 -82 -57 -162 16 -57 18 -1 -35 -1289 -6 -143 -19 -462 -30 -708 -10
-247 -19 -450 -21 -452 -2 -2 -241 48 -532 110 -465 100 -531 117 -559 140
-79 67 -155 86 -222 57 -112 -50 -124 -197 -25 -322 65 -82 130 -97 270 -63
83 20 74 25 192 -122 247 -308 390 -612 459 -980 32 -175 32 -503 -1 -690 -88
-495 -324 -961 -705 -1389 -69 -77 -96 -115 -93 -128 6 -22 8 -22 -44 2 -24
11 -66 20 -92 20 -40 0 -53 -5 -78 -29 l-28 -29 -39 67 c-38 65 -38 67 -16 63
33 -6 149 107 220 214 282 423 412 1139 319 1754 -79 520 -281 978 -599 1358
-47 56 -79 102 -71 102 8 0 32 17 55 38 46 44 52 83 23 134 -32 55 -83 72
-213 74 -91 2 -1063 117 -1256 149 l-31 5 -6 852 c-4 469 -5 854 -3 856 2 2
28 -10 57 -27 80 -44 234 -110 287 -122 63 -14 241 -14 322 1 89 15 362 85
435 110 283 99 585 130 780 81 128 -33 228 -82 407 -203 171 -116 278 -181
285 -174 2 2 -14 51 -36 108 -139 354 -400 597 -774 723 -56 19 -95 36 -87 39
87 29 234 35 311 12 80 -24 163 -72 290 -167 148 -111 289 -203 289 -189 0 20
-101 219 -148 290 -125 189 -312 356 -542 485 -167 93 -324 135 -507 135 -148
0 -279 -32 -443 -108 -244 -113 -642 -192 -818 -162 -102 17 -112 29 -112 141
0 50 5 99 11 110 16 31 1 94 -29 125 -53 53 -141 77 -198 54z m124 -54 c61
-31 61 -32 52 -241 -5 -104 -6 -740 -3 -1413 l6 -1223 -24 5 c-13 3 -55 8 -93
11 l-69 7 6 596 c20 1812 21 2096 5 2127 -27 52 -31 93 -14 120 14 21 25 25
62 25 25 0 57 -6 72 -14z m3453 -899 c48 -32 57 -65 37 -130 -11 -34 -19 -104
-22 -202 -6 -170 -42 -824 -51 -929 -5 -52 -4 -66 6 -60 10 6 11 -23 6 -132
-3 -76 -14 -365 -23 -641 -15 -407 -21 -503 -32 -503 -7 0 -44 7 -83 16 l-69
16 0 51 c0 49 12 357 61 1517 23 556 28 858 15 936 -8 47 -6 53 15 68 34 23
99 20 140 -7z m449 -447 c22 -11 40 -23 40 -25 0 -5 -79 32 -89 41 -11 10 14
2 49 -16z m33 -417 c-7 -2 -21 -2 -30 0 -10 3 -4 5 12 5 17 0 24 -2 18 -5z
m-25 -60 c-10 -2 -26 -2 -35 0 -10 3 -2 5 17 5 19 0 27 -2 18 -5z m-18 -213
c8 -5 11 -10 5 -10 -5 0 -17 5 -25 10 -8 5 -10 10 -5 10 6 0 17 -5 25 -10z
m45 -20 c3 -6 -1 -7 -9 -4 -18 7 -21 14 -7 14 6 0 13 -4 16 -10z m-5731 -656
c15 -6 26 -48 26 -104 0 -31 -4 -39 -22 -44 -67 -18 -143 13 -162 65 -12 36 0
78 27 89 21 9 101 5 131 -6z m251 -38 l180 -24 72 -73 c39 -41 71 -74 70 -75
-1 -1 -114 13 -252 32 -137 18 -251 34 -252 34 -2 0 -3 29 -3 65 0 36 1 65 3
65 1 0 83 -11 182 -24z m3023 -367 c89 -19 123 -88 68 -136 -43 -37 -64 -29
-153 57 l-81 79 36 4 c71 7 81 7 130 -4z m-818 -2801 c381 -52 682 -275 891
-662 l41 -77 -38 6 c-22 3 -253 23 -514 45 -724 62 -912 79 -917 84 -3 3 0
119 6 258 6 139 12 273 13 297 1 24 7 45 13 48 7 2 66 8 131 12 130 9 257 5
374 -11z m-564 -120 c-3 -62 -8 -174 -11 -248 -3 -74 -8 -158 -11 -186 l-5
-52 -42 4 c-23 3 -62 7 -86 10 l-44 6 7 146 c3 81 9 204 12 273 l7 127 81 15
c44 8 85 15 90 16 4 1 6 -49 2 -111z m-223 -15 c-2 -43 -7 -160 -12 -261 -5
-100 -10 -184 -12 -186 -2 -2 -227 16 -499 40 -272 23 -568 48 -657 55 -158
13 -186 20 -120 34 17 4 228 71 467 150 239 79 485 157 545 174 61 16 142 39
180 50 116 32 112 34 108 -56z m4077 -487 c94 -25 117 -33 183 -66 161 -79
291 -242 353 -442 10 -32 16 -59 13 -61 -4 -4 -1201 114 -1208 120 -5 3 19
436 25 442 2 2 45 10 96 17 123 17 461 11 538 -10z m-683 -63 c-3 -10 -5 -2
-5 17 0 19 2 27 5 18 2 -10 2 -26 0 -35z m-57 -66 c0 -57 -3 -151 -6 -208 l-7
-104 -41 3 c-94 7 -86 -12 -86 201 l0 188 53 10 c94 18 87 26 87 -90z m-195
-34 c-3 -54 -8 -134 -11 -178 l-5 -80 -417 41 c-229 23 -443 46 -475 51 l-59
8 324 89 c363 101 604 164 631 165 17 1 18 -7 12 -96z m242 -10 c-2 -16 -4 -3
-4 27 0 30 2 43 4 28 2 -16 2 -40 0 -55z m-1255 -439 c165 -369 238 -691 225
-1004 -13 -310 -77 -531 -267 -915 l-109 -220 -61 -12 c-63 -12 -120 -46 -141
-85 -20 -37 -13 -88 15 -117 23 -22 35 -26 89 -26 44 0 75 7 107 22 38 18 70
23 196 29 l151 7 32 -29 c92 -81 188 -251 198 -348 l6 -56 -30 0 c-16 0 -105
-7 -198 -15 -1243 -108 -2508 -65 -3563 122 -134 24 -153 29 -157 47 -3 12
-16 91 -30 176 -14 85 -28 167 -31 183 l-6 27 74 -1 c70 0 186 -15 141 -18
-12 0 -35 -13 -52 -27 -58 -48 -34 -121 52 -163 49 -24 55 -24 1067 -41 1212
-21 1565 -30 1620 -42 82 -16 146 -4 187 37 79 79 8 185 -124 185 l-32 0 75
113 c452 671 607 1269 483 1870 -23 113 -76 286 -114 372 -14 31 -25 59 -25
63 0 5 15 6 33 4 18 -2 48 1 67 6 19 6 40 9 45 8 6 -2 40 -70 77 -152z m-5765
-946 c15 -19 53 -126 53 -148 0 -11 -11 -27 -25 -36 -34 -22 -71 -6 -110 49
l-30 42 -6 -95 c-8 -113 4 -336 26 -481 9 -57 37 -214 64 -349 27 -135 48
-246 46 -248 -1 -2 -25 7 -51 19 -64 30 -182 148 -223 224 -43 80 -96 239
-116 350 -22 124 -30 365 -16 507 6 64 14 124 17 133 11 28 92 44 230 44 94 1
134 -3 141 -11z m905 -249 c153 -52 283 -124 526 -291 405 -279 602 -405 672
-429 17 -6 29 -13 26 -16 -6 -6 -246 55 -426 109 -405 120 -749 247 -1301 482
-28 11 -38 24 -47 54 -16 52 -17 49 26 70 152 77 340 84 524 21z m-819 27 c3
-8 42 -33 87 -56 44 -24 79 -44 77 -46 -2 -2 -49 17 -105 43 -81 37 -99 49
-91 60 15 17 25 17 32 -1z m-98 -549 c55 -338 66 -419 39 -297 -39 178 -87
464 -98 595 -10 106 2 47 59 -298z m8188 -124 c44 -95 56 -147 57 -238 0 -82
-16 -148 -55 -228 -34 -68 -117 -173 -135 -169 -7 2 -49 -5 -94 -14 -96 -19
-117 -23 -176 -29 -25 -2 -232 -31 -460 -64 -228 -33 -416 -58 -419 -56 -5 6
16 346 23 352 3 3 136 11 296 18 218 9 294 15 300 25 6 10 28 5 102 -24 l93
-37 54 58 c87 94 217 260 294 375 40 59 75 107 78 108 3 0 22 -35 42 -77z
m-5989 -117 c65 -27 181 -39 336 -34 175 6 165 17 98 -114 l-40 -77 -191 6
c-106 3 -195 8 -199 12 -7 6 -47 221 -41 221 2 0 19 -6 37 -14z m4457 -96 c-1
-47 -6 -88 -9 -91 -7 -6 -754 -39 -760 -34 -7 6 138 86 207 115 160 68 309 99
471 96 l95 -1 -4 -85z m192 58 c52 -11 53 -13 41 -102 l-7 -46 -95 0 -95 0 7
53 c3 28 6 67 6 86 l0 33 48 -7 c26 -4 68 -11 95 -17z m-2593 -13 c217 -33
426 -121 573 -242 23 -19 25 -23 10 -23 -30 0 -1016 40 -1047 43 l-29 2 2 105
c1 57 4 106 6 109 22 21 356 26 485 6z m-533 -82 c-4 -38 -7 -84 -7 -103 l0
-35 -86 3 -86 4 7 81 c4 45 9 84 11 86 6 7 108 29 138 30 l29 1 -6 -67z m3390
20 c78 -26 141 -49 138 -51 -2 -2 -74 -7 -160 -11 l-155 -6 0 58 c0 48 3 57
18 57 9 0 81 -21 159 -47z m-3607 -71 l0 -78 -87 3 c-49 2 -140 6 -203 9
l-115 7 86 33 c63 24 291 99 317 104 1 0 2 -35 2 -78z m-3443 36 c-3 -8 -6 -5
-6 6 -1 11 2 17 5 13 3 -3 4 -12 1 -19z m7360 -80 l58 -23 -71 -6 c-39 -4
-164 -10 -278 -14 l-206 -7 0 26 c0 23 4 26 38 27 42 2 321 15 369 17 17 1 57
-8 90 -20z m-539 -25 l-3 -28 -92 -3 -93 -3 0 25 c0 27 7 28 148 34 42 2 43 1
40 -25z m-238 -11 l0 -28 -307 -13 c-170 -6 -375 -14 -458 -18 l-150 -5 41 31
41 31 214 6 c118 3 284 9 369 13 272 14 250 15 250 -17z m-3290 -38 l146 -6
-4 -67 c-2 -36 -5 -67 -6 -68 -1 -1 -179 1 -396 5 l-395 8 145 72 145 73 110
-5 c61 -3 175 -8 255 -12z m358 -19 c2 -2 0 -25 -4 -53 l-6 -51 -67 -6 c-36
-4 -71 -7 -78 -8 -14 -2 -13 -5 -13 73 l0 60 83 -6 c45 -4 83 -8 85 -9z m626
-19 l568 -23 52 -53 51 -52 -540 6 c-297 4 -579 9 -627 12 l-88 6 0 64 c0 35
3 64 8 64 4 -1 263 -11 576 -24z m2532 -133 c-4 -82 -9 -164 -12 -184 l-5 -36
-90 -13 c-50 -6 -92 -10 -93 -8 -2 1 1 87 7 190 l10 187 41 4 c23 2 65 4 95 5
l53 2 -6 -147z m-230 70 c-3 -38 -8 -125 -12 -195 -4 -71 -8 -128 -9 -128 -2
0 -80 -11 -175 -25 -95 -14 -173 -25 -175 -25 -1 0 -7 26 -14 58 -20 100 -110
262 -186 332 l-27 25 239 11 c131 6 267 11 302 12 l63 2 -6 -67z m2149 -182
l-171 -89 -204 44 c-214 47 -235 52 -229 58 5 5 349 54 459 65 47 4 137 9 200
9 l115 2 -170 -89z m403 63 c132 -29 202 -91 202 -179 0 -43 -19 -123 -31
-131 -10 -6 -669 137 -669 145 0 3 68 40 151 81 82 41 162 83 177 92 29 19 54
18 170 -8z m-1181 -62 c-16 -18 -15 -18 12 -14 27 4 498 -95 514 -108 4 -3
-124 -75 -285 -158 l-293 -151 -6 92 c-7 100 -27 196 -58 276 l-19 51 21 5
c130 30 135 30 114 7z m-267 -56 c0 -17 -98 -166 -113 -171 -23 -9 -496 -85
-707 -114 -701 -98 -1257 -143 -1945 -160 -411 -10 -1015 -3 -1015 12 0 6 -16
7 -40 3 -22 -3 -125 0 -228 8 -103 8 -259 20 -347 26 -314 22 -898 83 -1007
106 -27 5 -33 25 -54 175 l-6 47 103 -19 c1287 -237 2856 -248 4489 -34 300
39 845 123 868 134 1 0 2 -5 2 -13z m140 -125 c11 -42 22 -117 26 -167 l7 -92
-197 -156 c-108 -86 -198 -156 -200 -156 -1 0 1 26 6 58 10 69 148 432 164
432 6 0 25 30 42 68 16 37 47 87 68 111 l38 44 14 -33 c8 -19 22 -68 32 -109z
m-3692 -1078 c-10 -2 -28 -2 -40 0 -13 2 -5 4 17 4 22 1 32 -1 23 -4z m790 0
c-15 -2 -42 -2 -60 0 -18 2 -6 4 27 4 33 0 48 -2 33 -4z m-2753 -488 c32 -19
60 -37 64 -41 6 -8 -67 32 -106 56 -19 12 -28 10 -81 -13 -33 -15 -63 -27 -68
-27 -12 1 107 58 122 59 6 1 37 -15 69 -34z m1085 -41 c22 -15 40 -29 40 -31
0 -5 -15 3 -50 27 -14 10 -34 20 -45 23 -17 4 -17 5 -2 6 9 0 35 -11 57 -25z
m-1318 0 c-59 -26 -196 -62 -257 -68 -56 -5 -55 -4 18 10 43 8 117 27 165 43
94 31 126 38 74 15z m1218 6 c-14 -4 -34 -8 -45 -8 -16 0 -15 2 5 8 14 4 34 8
45 8 16 0 15 -2 -5 -8z m-885 -28 c-3 -3 -11 0 -18 7 -9 10 -8 11 6 5 10 -3
15 -9 12 -12z m800 9 c-11 -5 -36 -11 -55 -14 -35 -6 -34 -6 5 8 43 14 84 19
50 6z m-745 -26 c14 -8 21 -14 15 -14 -5 0 -21 6 -35 14 -14 8 -20 14 -15 14
6 0 21 -6 35 -14z m630 -5 c-34 -11 -60 -11 -35 0 11 5 29 8 40 8 16 0 15 -2
-5 -8z m490 -56 c30 -13 49 -23 41 -24 -16 0 -181 76 -181 85 0 3 19 -4 43
-16 23 -12 67 -33 97 -45z m1127 60 c-3 -3 -12 -4 -19 -1 -8 3 -5 6 6 6 11 1
17 -2 13 -5z m-40 -10 c-3 -3 -12 -4 -19 -1 -8 3 -5 6 6 6 11 1 17 -2 13 -5z
m-2067 -30 l55 -13 -48 5 c-26 3 -65 12 -85 20 -41 16 -29 14 78 -12z m427 20
c-3 -3 -12 -4 -19 -1 -8 3 -5 6 6 6 11 1 17 -2 13 -5z m1600 0 c-3 -3 -12 -4
-19 -1 -8 3 -5 6 6 6 11 1 17 -2 13 -5z m223 -31 c0 -7 -39 17 -46 28 -3 6 5
3 20 -6 14 -10 26 -19 26 -22z m2325 27 c-11 -5 -27 -9 -35 -9 -9 0 -8 4 5 9
11 5 27 9 35 9 9 0 8 -4 -5 -9z m-4188 -6 c-3 -3 -12 -4 -19 -1 -8 3 -5 6 6 6
11 1 17 -2 13 -5z m-1294 -11 c-35 -2 -91 -2 -125 0 -35 2 -7 3 62 3 69 0 97
-1 63 -3z m1232 -3 c-16 -4 -41 -8 -55 -8 -22 0 -22 1 5 8 17 4 41 8 55 8 22
0 22 -1 -5 -8z m1632 4 c-3 -3 -12 -4 -19 -1 -8 3 -5 6 6 6 11 1 17 -2 13 -5z
m2458 -25 c-60 -16 -119 -28 -130 -28 -25 0 192 57 220 57 11 0 -29 -13 -90
-29z m-2498 15 c-3 -3 -12 -4 -19 -1 -8 3 -5 6 6 6 11 1 17 -2 13 -5z m-1724
-11 c-23 -2 -64 -2 -90 0 -26 2 -7 3 42 3 50 0 71 -1 48 -3z m1684 1 c-3 -3
-12 -4 -19 -1 -8 3 -5 6 6 6 11 1 17 -2 13 -5z m-40 -10 c-3 -3 -12 -4 -19 -1
-8 3 -5 6 6 6 11 1 17 -2 13 -5z m509 -32 c-5 -4 -66 26 -66 33 0 3 16 -3 35
-12 19 -9 33 -18 31 -21z m-553 21 c-7 -2 -19 -2 -25 0 -7 3 -2 5 12 5 14 0
19 -2 13 -5z m-46 -9 c-3 -3 -12 -4 -19 -1 -8 3 -5 6 6 6 11 1 17 -2 13 -5z
m-650 -10 c-3 -3 -12 -4 -19 -1 -8 3 -5 6 6 6 11 1 17 -2 13 -5z m596 -1 c-7
-2 -19 -2 -25 0 -7 3 -2 5 12 5 14 0 19 -2 13 -5z m-556 -9 c-3 -3 -12 -4 -19
-1 -8 3 -5 6 6 6 11 1 17 -2 13 -5z m510 0 c-3 -3 -12 -4 -19 -1 -8 3 -5 6 6
6 11 1 17 -2 13 -5z m-449 -11 c-10 -2 -26 -2 -35 0 -10 3 -2 5 17 5 19 0 27
-2 18 -5z m390 0 c-10 -2 -26 -2 -35 0 -10 3 -2 5 17 5 19 0 27 -2 18 -5z
m2559 1 c-3 -3 -12 -4 -19 -1 -8 3 -5 6 6 6 11 1 17 -2 13 -5z m-2869 -11
c-10 -2 -28 -2 -40 0 -13 2 -5 4 17 4 22 1 32 -1 23 -4z m225 0 c-13 -2 -33
-2 -45 0 -13 2 -3 4 22 4 25 0 35 -2 23 -4z m2580 0 c-7 -2 -19 -2 -25 0 -7 3
-2 5 12 5 14 0 19 -2 13 -5z m-1616 -9 c-3 -3 -12 -4 -19 -1 -8 3 -5 6 6 6 11
1 17 -2 13 -5z m40 -10 c-3 -3 -12 -4 -19 -1 -8 3 -5 6 6 6 11 1 17 -2 13 -5z
m350 0 c-3 -3 -12 -4 -19 -1 -8 3 -5 6 6 6 11 1 17 -2 13 -5z m920 0 c-3 -3
-12 -4 -19 -1 -8 3 -5 6 6 6 11 1 17 -2 13 -5z m111 -1 c-10 -2 -26 -2 -35 0
-10 3 -2 5 17 5 19 0 27 -2 18 -5z m-1325 -10 c-7 -2 -19 -2 -25 0 -7 3 -2 5
12 5 14 0 19 -2 13 -5z m234 1 c-3 -3 -12 -4 -19 -1 -8 3 -5 6 6 6 11 1 17 -2
13 -5z m-130 -10 c-3 -3 -12 -4 -19 -1 -8 3 -5 6 6 6 11 1 17 -2 13 -5z"/>
<path d="M689 2159 c-41 -21 -110 -51 -154 -66 -73 -26 -92 -28 -220 -28 -119
0 -150 3 -208 23 -37 12 -72 20 -77 17 -19 -12 -10 -33 18 -43 204 -80 422
-63 646 50 l70 35 80 -37 c110 -51 191 -71 316 -77 124 -6 213 9 352 61 l93
35 183 -6 c177 -6 182 -5 182 14 0 18 -9 21 -92 27 -50 3 -136 6 -191 6 -89 0
-109 -4 -191 -34 -237 -89 -423 -84 -642 19 l-90 42 -75 -38z"/>
<path d="M9650 1851 c-289 -78 -345 -91 -436 -100 -100 -10 -245 -2 -335 18
-59 14 -59 14 -59 -12 0 -21 7 -25 68 -36 37 -7 119 -15 182 -18 145 -6 246
10 484 77 99 27 190 50 201 50 12 0 30 -8 39 -19 27 -29 124 -69 201 -81 100
-16 294 -14 442 5 71 10 131 19 135 21 4 3 31 -13 59 -36 65 -51 176 -105 259
-125 96 -23 270 -36 393 -28 92 5 107 8 107 23 0 16 -20 18 -207 23 -141 3
-228 10 -271 21 -88 22 -197 75 -261 126 l-53 42 -127 -18 c-155 -23 -420 -26
-501 -5 -67 17 -138 52 -164 80 -24 26 -29 26 -156 -8z"/>
<path d="M1736 673 c-167 -92 -256 -123 -355 -123 -78 0 -153 18 -200 49 -22
14 -25 13 -37 -4 -13 -18 -10 -21 40 -47 31 -15 87 -33 126 -40 122 -21 225 8
438 122 l111 59 53 -36 c72 -49 200 -109 273 -128 69 -19 219 -21 291 -5 27 6
114 32 193 57 192 60 212 63 252 29 116 -98 353 -136 629 -102 222 28 232 31
212 64 -6 9 -21 10 -60 2 -182 -34 -429 -42 -550 -16 -90 19 -166 53 -215 96
-46 40 -56 39 -265 -26 -189 -60 -251 -73 -337 -74 -122 0 -291 61 -420 154
-27 20 -52 36 -55 36 -3 0 -59 -30 -124 -67z"/>
<path d="M6040 399 c-77 -52 -261 -137 -352 -163 -161 -46 -289 -59 -523 -53
-115 4 -222 9 -237 13 -25 6 -28 3 -28 -19 l0 -24 161 -13 c381 -30 720 40
972 202 l47 30 53 -52 c70 -72 151 -122 239 -151 109 -36 266 -33 501 9 98 18
187 32 197 32 11 0 49 -21 85 -46 252 -176 589 -207 1085 -98 166 36 160 33
141 63 -8 12 -22 11 -93 -7 -223 -55 -313 -67 -538 -67 -175 0 -227 3 -280 18
-117 32 -202 69 -289 127 l-86 57 -65 -8 c-36 -4 -130 -19 -210 -33 -155 -28
-319 -34 -400 -15 -89 20 -172 69 -255 151 -44 43 -80 78 -80 77 0 0 -20 -14
-45 -30z"/>
</g>
</svg>
